<svg id="visual" viewBox="0 0 900 600" width="900" height="600" xmlns="http://www.w3.org/2000/svg" xmlns:xlink="http://www.w3.org/1999/xlink" version="1.1"><rect x="0" y="0" width="900" height="600" fill="#001122"></rect><path d="M0 443L129 416L257 420L386 372L514 407L643 403L771 371L900 414L900 601L771 601L643 601L514 601L386 601L257 601L129 601L0 601Z" fill="#010d19"></path><path d="M0 410L129 426L257 406L386 479L514 447L643 419L771 466L900 421L900 601L771 601L643 601L514 601L386 601L257 601L129 601L0 601Z" fill="#010e1b"></path><path d="M0 511L129 491L257 481L386 500L514 460L643 457L771 480L900 464L900 601L771 601L643 601L514 601L386 601L257 601L129 601L0 601Z" fill="#010f1d"></path><path d="M0 503L129 537L257 522L386 513L514 488L643 528L771 540L900 535L900 601L771 601L643 601L514 601L386 601L257 601L129 601L0 601Z" fill="#01101f"></path><path d="M0 550L129 525L257 572L386 541L514 530L643 556L771 572L900 546L900 601L771 601L643 601L514 601L386 601L257 601L129 601L0 601Z" fill="#001122"></path></svg>