<svg xmlns="http://www.w3.org/2000/svg" xmlns:xlink="http://www.w3.org/1999/xlink" width="100" zoomAndPan="magnify" viewBox="0 0 75 82.499998" height="110" preserveAspectRatio="xMidYMid meet" version="1.0"><defs><clipPath id="bba09746f7"><path d="M 0.226562 0 L 74.773438 0 L 74.773438 82 L 0.226562 82 Z M 0.226562 0 " clip-rule="nonzero"/></clipPath><clipPath id="0f16817d50"><path d="M 0.226562 13 L 74.738281 13 L 74.738281 81 L 0.226562 81 Z M 0.226562 13 " clip-rule="nonzero"/></clipPath><clipPath id="3df094b775"><path d="M 27 71 L 46 71 L 46 81.347656 L 27 81.347656 Z M 27 71 " clip-rule="nonzero"/></clipPath><clipPath id="7dd5661a5d"><path d="M 20.453125 56.429688 L 24.242188 56.429688 L 24.242188 60.21875 L 20.453125 60.21875 Z M 20.453125 56.429688 " clip-rule="nonzero"/></clipPath><clipPath id="f827e4ce86"><path d="M 0.453125 0.429688 L 4.242188 0.429688 L 4.242188 4.21875 L 0.453125 4.21875 Z M 0.453125 0.429688 " clip-rule="nonzero"/></clipPath><clipPath id="b6d0d9f8ac"><rect x="0" width="5" y="0" height="5"/></clipPath><clipPath id="4ab88d8282"><rect x="0" width="75" y="0" height="82"/></clipPath></defs><g clip-path="url(#bba09746f7)"><g><g clip-path="url(#4ab88d8282)"><path fill="#000000" d="M 72.027344 67.554688 C 71.839844 67.734375 71.636719 67.894531 71.421875 68.035156 C 71.203125 68.175781 70.972656 68.292969 70.734375 68.386719 C 70.492188 68.484375 70.246094 68.554688 69.992188 68.601562 C 69.734375 68.648438 69.480469 68.667969 69.21875 68.664062 C 68.960938 68.660156 68.707031 68.632812 68.453125 68.578125 C 68.199219 68.523438 67.953125 68.445312 67.714844 68.34375 C 67.480469 68.238281 67.253906 68.113281 67.039062 67.96875 C 66.828125 67.820312 66.632812 67.65625 66.449219 67.46875 L 55.078125 55.757812 C 54.855469 55.527344 54.582031 55.410156 54.261719 55.40625 L 36.878906 55.40625 C 36 55.40625 35.140625 55.292969 34.292969 55.066406 C 33.445312 54.835938 32.644531 54.5 31.886719 54.058594 C 31.128906 53.613281 30.445312 53.082031 29.832031 52.453125 C 29.214844 51.828125 28.695312 51.136719 28.265625 50.371094 L 20.464844 33.667969 C 20.453125 33.644531 20.441406 33.621094 20.425781 33.597656 C 20.226562 33.234375 20.066406 32.855469 19.9375 32.460938 C 19.808594 32.066406 19.722656 31.664062 19.667969 31.25 C 19.617188 30.839844 19.605469 30.425781 19.632812 30.015625 C 19.660156 29.601562 19.726562 29.191406 19.828125 28.792969 C 19.933594 28.390625 20.074219 28.003906 20.25 27.628906 C 20.429688 27.253906 20.636719 26.898438 20.882812 26.5625 C 21.128906 26.226562 21.402344 25.917969 21.703125 25.632812 C 22.007812 25.351562 22.332031 25.097656 22.683594 24.875 C 23.035156 24.652344 23.402344 24.464844 23.789062 24.3125 C 24.171875 24.160156 24.570312 24.046875 24.976562 23.96875 C 25.386719 23.890625 25.796875 23.851562 26.210938 23.851562 C 26.625 23.851562 27.039062 23.890625 27.445312 23.96875 C 27.851562 24.046875 28.25 24.160156 28.636719 24.3125 C 29.023438 24.464844 29.390625 24.652344 29.742188 24.875 C 30.089844 25.09375 30.417969 25.347656 30.722656 25.628906 C 31.023438 25.914062 31.296875 26.222656 31.542969 26.558594 C 31.769531 26.882812 31.964844 27.222656 32.132812 27.582031 L 40.921875 46.015625 C 41.015625 46.210938 41.15625 46.371094 41.34375 46.488281 C 41.527344 46.605469 41.730469 46.664062 41.949219 46.664062 L 53.578125 46.664062 C 54.742188 46.664062 55.863281 46.894531 56.9375 47.347656 C 58.011719 47.800781 58.957031 48.445312 59.773438 49.28125 L 72.109375 61.988281 C 72.472656 62.359375 72.75 62.792969 72.941406 63.277344 C 73.136719 63.761719 73.226562 64.265625 73.21875 64.785156 C 73.210938 65.308594 73.105469 65.808594 72.898438 66.289062 C 72.691406 66.769531 72.398438 67.1875 72.027344 67.554688 Z M 72.027344 67.554688 " fill-opacity="1" fill-rule="nonzero"/><path fill="#000000" d="M 24.964844 6.484375 C 25.140625 6.910156 25.273438 7.351562 25.363281 7.804688 C 25.453125 8.253906 25.5 8.710938 25.5 9.175781 C 25.5 9.636719 25.453125 10.09375 25.363281 10.546875 C 25.273438 10.996094 25.140625 11.4375 24.964844 11.863281 C 24.785156 12.289062 24.570312 12.695312 24.3125 13.078125 C 24.054688 13.460938 23.765625 13.816406 23.4375 14.144531 C 23.109375 14.46875 22.757812 14.761719 22.371094 15.015625 C 21.988281 15.273438 21.582031 15.488281 21.15625 15.667969 C 20.730469 15.84375 20.289062 15.976562 19.835938 16.066406 C 19.382812 16.15625 18.925781 16.203125 18.464844 16.203125 C 18 16.203125 17.542969 16.15625 17.089844 16.066406 C 16.636719 15.976562 16.199219 15.84375 15.769531 15.667969 C 15.34375 15.488281 14.9375 15.273438 14.554688 15.015625 C 14.171875 14.761719 13.816406 14.46875 13.488281 14.144531 C 13.160156 13.816406 12.871094 13.460938 12.613281 13.078125 C 12.355469 12.695312 12.140625 12.289062 11.964844 11.863281 C 11.785156 11.4375 11.652344 10.996094 11.5625 10.546875 C 11.472656 10.09375 11.429688 9.636719 11.429688 9.175781 C 11.429688 8.710938 11.472656 8.253906 11.5625 7.804688 C 11.652344 7.351562 11.785156 6.910156 11.964844 6.484375 C 12.140625 6.058594 12.355469 5.652344 12.613281 5.269531 C 12.871094 4.886719 13.160156 4.53125 13.488281 4.203125 C 13.816406 3.878906 14.171875 3.585938 14.554688 3.332031 C 14.9375 3.074219 15.34375 2.859375 15.769531 2.679688 C 16.199219 2.503906 16.636719 2.371094 17.089844 2.28125 C 17.542969 2.191406 18 2.144531 18.464844 2.144531 C 18.925781 2.144531 19.382812 2.191406 19.835938 2.28125 C 20.289062 2.371094 20.730469 2.503906 21.15625 2.679688 C 21.582031 2.859375 21.988281 3.074219 22.371094 3.332031 C 22.757812 3.585938 23.109375 3.878906 23.4375 4.203125 C 23.765625 4.53125 24.054688 4.886719 24.3125 5.269531 C 24.570312 5.652344 24.785156 6.058594 24.964844 6.484375 Z M 24.964844 6.484375 " fill-opacity="1" fill-rule="nonzero"/><g clip-path="url(#0f16817d50)"><path fill="#000000" d="M 73.582031 78.929688 C 73.445312 79.148438 73.289062 79.355469 73.109375 79.542969 C 72.933594 79.730469 72.742188 79.902344 72.53125 80.050781 C 72.320312 80.203125 72.097656 80.332031 71.859375 80.441406 C 71.625 80.546875 71.382812 80.628906 71.128906 80.6875 C 70.878906 80.746094 70.621094 80.78125 70.363281 80.789062 C 70.105469 80.796875 69.847656 80.78125 69.589844 80.738281 C 69.335938 80.699219 69.085938 80.632812 68.84375 80.539062 C 68.601562 80.449219 68.371094 80.335938 68.152344 80.199219 L 49.949219 68.90625 C 49.765625 68.792969 49.566406 68.734375 49.351562 68.730469 L 24.953125 68.730469 C 24.570312 68.730469 24.191406 68.675781 23.824219 68.566406 C 23.457031 68.457031 23.113281 68.296875 22.789062 68.089844 C 22.46875 67.878906 22.183594 67.628906 21.9375 67.332031 C 21.6875 67.039062 21.488281 66.71875 21.335938 66.367188 L 0.898438 19.289062 C 0.777344 19.046875 0.683594 18.800781 0.617188 18.542969 C 0.550781 18.285156 0.507812 18.019531 0.492188 17.753906 C 0.480469 17.488281 0.492188 17.222656 0.53125 16.960938 C 0.570312 16.695312 0.636719 16.4375 0.726562 16.1875 C 0.820312 15.9375 0.933594 15.699219 1.074219 15.472656 C 1.214844 15.246094 1.378906 15.035156 1.5625 14.839844 C 1.742188 14.644531 1.945312 14.472656 2.164062 14.316406 C 2.382812 14.164062 2.613281 14.035156 2.859375 13.929688 C 3.105469 13.820312 3.355469 13.742188 3.617188 13.6875 C 3.878906 13.632812 4.144531 13.601562 4.410156 13.601562 C 4.679688 13.601562 4.941406 13.625 5.203125 13.679688 C 5.464844 13.730469 5.71875 13.808594 5.964844 13.914062 C 6.210938 14.015625 6.445312 14.144531 6.664062 14.296875 C 6.886719 14.445312 7.089844 14.617188 7.273438 14.8125 C 7.457031 15.003906 7.621094 15.210938 7.765625 15.4375 C 7.90625 15.664062 8.027344 15.902344 8.121094 16.152344 L 27.242188 60.175781 C 27.332031 60.382812 27.472656 60.550781 27.664062 60.671875 C 27.851562 60.796875 28.0625 60.859375 28.289062 60.859375 L 50.796875 60.859375 C 51.546875 60.863281 52.238281 61.0625 52.871094 61.457031 L 72.304688 73.511719 C 72.746094 73.785156 73.121094 74.136719 73.425781 74.5625 C 73.730469 74.984375 73.941406 75.453125 74.0625 75.960938 C 74.179688 76.46875 74.199219 76.980469 74.113281 77.496094 C 74.03125 78.011719 73.847656 78.492188 73.574219 78.933594 Z M 73.582031 78.929688 " fill-opacity="1" fill-rule="nonzero"/></g><g clip-path="url(#3df094b775)"><path fill="#000000" d="M 27.9375 71.007812 L 45.113281 71.007812 L 45.113281 81.347656 L 27.9375 81.347656 Z M 27.9375 71.007812 " fill-opacity="1" fill-rule="nonzero"/></g><g clip-path="url(#7dd5661a5d)"><g transform="matrix(1, 0, 0, 1, 20, 56)"><g clip-path="url(#b6d0d9f8ac)"><g clip-path="url(#f827e4ce86)"><path fill="#000000" d="M 0.453125 0.429688 L 4.242188 0.429688 L 4.242188 4.21875 L 0.453125 4.21875 Z M 0.453125 0.429688 " fill-opacity="1" fill-rule="nonzero"/></g></g></g></g></g></g></g></svg>