<svg xmlns="http://www.w3.org/2000/svg" xmlns:xlink="http://www.w3.org/1999/xlink" width="144" zoomAndPan="magnify" viewBox="0 0 108 123.750003" height="165" preserveAspectRatio="xMidYMid meet" version="1.0"><defs><clipPath id="5fcde5ffd9"><path d="M 0.109375 0 L 107.890625 0 L 107.890625 123.5 L 0.109375 123.5 Z M 0.109375 0 " clip-rule="nonzero"/></clipPath><clipPath id="43f9de057d"><path d="M 24 0 L 107.839844 0 L 107.839844 110 L 24 110 Z M 24 0 " clip-rule="nonzero"/></clipPath><clipPath id="a94261a254"><path d="M 0.109375 45 L 77 45 L 77 122.722656 L 0.109375 122.722656 Z M 0.109375 45 " clip-rule="nonzero"/></clipPath><clipPath id="df566fdebe"><path d="M 31.089844 5.886719 L 40.707031 5.886719 L 40.707031 15.503906 L 31.089844 15.503906 Z M 31.089844 5.886719 " clip-rule="nonzero"/></clipPath><clipPath id="e99c2ede2a"><path d="M 0.0898438 0.886719 L 9.707031 0.886719 L 9.707031 10.503906 L 0.0898438 10.503906 Z M 0.0898438 0.886719 " clip-rule="nonzero"/></clipPath><clipPath id="60ab3af328"><rect x="0" width="10" y="0" height="11"/></clipPath><clipPath id="e18ff165e1"><rect x="0" width="108" y="0" height="124"/></clipPath></defs><g clip-path="url(#5fcde5ffd9)"><g transform="matrix(1, 0, 0, 1, 0.000000000000000014, 0.00000000000000159)"><g clip-path="url(#e18ff165e1)"><g clip-path="url(#43f9de057d)"><path fill="#000000" d="M 36.230469 21.839844 C 41.792969 21.324219 46.117188 16.539062 46.117188 10.941406 C 46.117188 4.914062 41.191406 0 35.160156 0 C 29.125 0 24.203125 4.914062 24.203125 10.941406 C 24.203125 12.777344 24.714844 14.660156 25.570312 16.242188 L 29.476562 71.097656 L 69.683594 71.105469 L 86.175781 109.691406 L 107.828125 101.214844 L 104.476562 93.242188 L 92.359375 97.609375 L 76.402344 60.824219 L 39.015625 61.074219 L 38.503906 54.128906 L 65.566406 54.136719 L 65.566406 43.859375 L 37.472656 43.847656 L 36.230469 21.835938 Z M 36.230469 21.839844 " fill-opacity="1" fill-rule="evenodd"/></g><g clip-path="url(#a94261a254)"><path fill="#000000" d="M 76.667969 100.507812 C 69.882812 113.902344 55.675781 122.730469 40.527344 122.730469 C 18.273438 122.730469 0.125 104.605469 0.125 82.386719 C 0.125 66.78125 9.59375 52.285156 23.722656 45.855469 L 24.636719 57.773438 C 16.28125 63.03125 11.128906 72.519531 11.128906 82.464844 C 11.128906 98.585938 24.292969 111.734375 40.4375 111.734375 C 55.207031 111.734375 67.800781 100.417969 69.519531 85.894531 Z M 76.667969 100.507812 " fill-opacity="1" fill-rule="evenodd"/></g><g clip-path="url(#df566fdebe)"><g transform="matrix(1, 0, 0, 1, 31, 5)"><g clip-path="url(#60ab3af328)"><g clip-path="url(#e99c2ede2a)"><path fill="#000000" d="M 0.0898438 0.886719 L 9.707031 0.886719 L 9.707031 10.503906 L 0.0898438 10.503906 Z M 0.0898438 0.886719 " fill-opacity="1" fill-rule="nonzero"/></g></g></g></g></g></g></g></svg>