<svg xmlns="http://www.w3.org/2000/svg" xmlns:xlink="http://www.w3.org/1999/xlink" width="154" zoomAndPan="magnify" viewBox="0 0 115.5 102.75" height="137" preserveAspectRatio="xMidYMid meet" version="1.0"><defs><clipPath id="a608ccb33b"><path d="M 69 0.0976562 L 115.003906 0.0976562 L 115.003906 47 L 69 47 Z M 69 0.0976562 " clip-rule="nonzero"/></clipPath><clipPath id="d05a89925e"><path d="M 19.320312 19.6875 L 34.632812 19.6875 L 34.632812 35 L 19.320312 35 Z M 19.320312 19.6875 " clip-rule="nonzero"/></clipPath><clipPath id="02710acbde"><path d="M 0.320312 0.6875 L 15.632812 0.6875 L 15.632812 16 L 0.320312 16 Z M 0.320312 0.6875 " clip-rule="nonzero"/></clipPath><clipPath id="2e6c96a54d"><rect x="0" width="16" y="0" height="16"/></clipPath></defs><g clip-path="url(#a608ccb33b)"><path fill="#010000" d="M 113.746094 15.753906 L 91.269531 36.847656 C 90.570312 37.546875 89.4375 37.546875 88.734375 36.847656 C 88.039062 36.148438 88.035156 35.015625 88.734375 34.316406 L 109.839844 11.847656 L 108.558594 10.566406 L 86.082031 31.664062 C 85.382812 32.359375 84.246094 32.359375 83.550781 31.664062 C 82.847656 30.964844 82.847656 29.828125 83.550781 29.128906 L 104.652344 6.660156 L 103.371094 5.378906 L 80.894531 26.472656 C 80.195312 27.175781 79.058594 27.175781 78.359375 26.472656 C 77.664062 25.777344 77.664062 24.644531 78.359375 23.945312 L 99.464844 1.472656 L 98.191406 0.203125 L 71.566406 26.820312 C 68.328125 30.058594 68.328125 35.304688 71.566406 38.542969 L 76.664062 43.640625 C 79.902344 46.875 85.160156 46.875 88.394531 43.640625 L 115.019531 17.027344 L 113.746094 15.753906 " fill-opacity="1" fill-rule="nonzero"/></g><path fill="#010000" d="M 72.136719 39.113281 L 15.464844 90.621094 C 12.953125 93.132812 12.953125 97.207031 15.464844 99.71875 C 17.980469 102.234375 22.058594 102.234375 24.570312 99.71875 L 76.09375 43.074219 L 72.136719 39.113281 " fill-opacity="1" fill-rule="nonzero"/><path fill="#010000" d="M 36.425781 43.074219 L 87.949219 99.71875 C 90.460938 102.234375 94.539062 102.234375 97.054688 99.71875 C 99.570312 97.207031 99.570312 93.132812 97.054688 90.621094 L 40.386719 39.113281 L 36.425781 43.074219 " fill-opacity="1" fill-rule="nonzero"/><path fill="#010000" d="M 35.101562 16.394531 C 24.894531 6.1875 11.828125 2.703125 5.917969 8.613281 C 0.0078125 14.523438 3.488281 27.585938 13.699219 37.792969 C 23.910156 47.996094 36.976562 51.480469 42.886719 45.574219 C 48.796875 39.664062 45.3125 26.601562 35.101562 16.394531 " fill-opacity="1" fill-rule="nonzero"/><g clip-path="url(#d05a89925e)"><g transform="matrix(1, 0, 0, 1, 19, 19)"><g clip-path="url(#2e6c96a54d)"><g clip-path="url(#02710acbde)"><path fill="#000000" d="M 0.320312 0.6875 L 15.632812 0.6875 L 15.632812 16 L 0.320312 16 Z M 0.320312 0.6875 " fill-opacity="1" fill-rule="nonzero"/></g></g></g></g></svg>