<svg xmlns="http://www.w3.org/2000/svg" xmlns:xlink="http://www.w3.org/1999/xlink" width="127" zoomAndPan="magnify" viewBox="0 0 95.25 59.249999" height="79" preserveAspectRatio="xMidYMid meet" version="1.0"><defs><clipPath id="c62ae86819"><path d="M 0.226562 0 L 94.285156 0 L 94.285156 58.507812 L 0.226562 58.507812 Z M 0.226562 0 " clip-rule="nonzero"/></clipPath><clipPath id="ad2bc59925"><path d="M 11 0 L 93.949219 0 L 93.949219 58.507812 L 11 58.507812 Z M 11 0 " clip-rule="nonzero"/></clipPath><clipPath id="e935f13699"><path d="M 25.683594 10.941406 L 33.578125 10.941406 L 33.578125 14.84375 L 25.683594 14.84375 Z M 25.683594 10.941406 " clip-rule="nonzero"/></clipPath><clipPath id="aa612a0c7c"><path d="M 0.683594 0.941406 L 8.578125 0.941406 L 8.578125 4.84375 L 0.683594 4.84375 Z M 0.683594 0.941406 " clip-rule="nonzero"/></clipPath><clipPath id="5acb76f4c4"><rect x="0" width="9" y="0" height="5"/></clipPath><clipPath id="200d7e42df"><rect x="0" width="95" y="0" height="59"/></clipPath></defs><g clip-path="url(#c62ae86819)"><g transform="matrix(1, 0, 0, 1, 0.000000000000000028, 0.000000000000006762)"><g clip-path="url(#200d7e42df)"><g clip-path="url(#ad2bc59925)"><path fill="#000000" d="M 78.597656 25.363281 C 73.265625 16.347656 63.292969 10.4375 51.550781 10.4375 C 29.84375 10.4375 14.375 33.3125 24.058594 53.667969 L 14.769531 58.515625 C 0.242188 20.128906 31.160156 0 52.867188 0 C 66.28125 0 82.210938 8.578125 89.257812 23.636719 Z M 82.382812 35.976562 C 83.210938 41.339844 82.664062 47.222656 80.386719 53.28125 L 89.488281 58.515625 C 93.230469 48.441406 93.710938 39.429688 91.992188 31.679688 Z M 93.28125 26.207031 C 93.40625 26.191406 93.523438 26.214844 93.632812 26.28125 C 93.738281 26.34375 93.816406 26.4375 93.855469 26.558594 C 93.898438 26.675781 93.894531 26.796875 93.851562 26.914062 C 93.804688 27.03125 93.726562 27.121094 93.617188 27.183594 C 85.03125 32.109375 56.273438 48.472656 53.234375 48.5625 C 52.691406 48.574219 52.15625 48.535156 51.621094 48.441406 C 51.089844 48.351562 50.570312 48.207031 50.0625 48.011719 C 49.558594 47.816406 49.078125 47.574219 48.617188 47.285156 C 48.160156 46.996094 47.734375 46.664062 47.34375 46.289062 C 46.949219 45.917969 46.597656 45.507812 46.285156 45.066406 C 45.972656 44.625 45.703125 44.15625 45.484375 43.660156 C 45.261719 43.164062 45.09375 42.652344 44.972656 42.125 C 44.851562 41.597656 44.78125 41.0625 44.769531 40.519531 C 44.753906 39.976562 44.789062 39.4375 44.878906 38.902344 C 44.96875 38.367188 45.109375 37.847656 45.304688 37.339844 C 45.496094 36.835938 45.734375 36.351562 46.023438 35.890625 C 46.308594 35.433594 46.640625 35.003906 47.011719 34.609375 C 47.382812 34.214844 47.785156 33.859375 48.226562 33.542969 C 48.667969 33.230469 49.136719 32.960938 49.628906 32.734375 C 50.121094 32.511719 50.632812 32.339844 51.160156 32.21875 C 51.6875 32.09375 52.222656 32.023438 52.761719 32.003906 C 54.59375 31.953125 84.0625 27.582031 93.296875 26.207031 Z M 93.28125 26.207031 " fill-opacity="1" fill-rule="nonzero"/></g><g clip-path="url(#e935f13699)"><g transform="matrix(1, 0, 0, 1, 25, 10)"><g clip-path="url(#5acb76f4c4)"><g clip-path="url(#aa612a0c7c)"><path fill="#000000" d="M 0.683594 0.941406 L 8.578125 0.941406 L 8.578125 4.84375 L 0.683594 4.84375 Z M 0.683594 0.941406 " fill-opacity="1" fill-rule="nonzero"/></g></g></g></g></g></g></g></svg>