<svg xmlns="http://www.w3.org/2000/svg" xmlns:xlink="http://www.w3.org/1999/xlink" width="170" zoomAndPan="magnify" viewBox="0 0 127.5 98.249997" height="131" preserveAspectRatio="xMidYMid meet" version="1.0"><defs><clipPath id="9ff271f4ed"><path d="M 0.234375 0 L 126.769531 0 L 126.769531 97.503906 L 0.234375 97.503906 Z M 0.234375 0 " clip-rule="nonzero"/></clipPath><clipPath id="001f8fae14"><path d="M 51 73 L 76 73 L 76 97.503906 L 51 97.503906 Z M 51 73 " clip-rule="nonzero"/></clipPath><clipPath id="341897648d"><path d="M 56.464844 78.34375 L 70.394531 78.34375 L 70.394531 92.273438 L 56.464844 92.273438 Z M 56.464844 78.34375 " clip-rule="nonzero"/></clipPath><clipPath id="3ee61b8ce3"><path d="M 0.464844 0.34375 L 14.394531 0.34375 L 14.394531 14.273438 L 0.464844 14.273438 Z M 0.464844 0.34375 " clip-rule="nonzero"/></clipPath><clipPath id="84c13630b5"><rect x="0" width="15" y="0" height="15"/></clipPath></defs><g clip-path="url(#9ff271f4ed)"><path fill="#ffffff" d="M 0.234375 0 L 126.769531 0 L 126.769531 97.503906 L 0.234375 97.503906 Z M 0.234375 0 " fill-opacity="1" fill-rule="nonzero"/></g><path fill="#000000" d="M 63.5 0 C 60.707031 -0.0078125 57.914062 0.121094 55.132812 0.390625 C 52.347656 0.65625 49.585938 1.0625 46.84375 1.601562 C 44.097656 2.144531 41.390625 2.820312 38.714844 3.628906 C 36.035156 4.4375 33.40625 5.375 30.824219 6.445312 C 28.238281 7.515625 25.714844 8.710938 23.25 10.027344 C 20.785156 11.347656 18.390625 12.785156 16.066406 14.339844 C 13.746094 15.894531 11.503906 17.5625 9.347656 19.335938 C 7.1875 21.113281 5.125 22.992188 3.152344 24.976562 C 2.871094 25.257812 2.617188 25.566406 2.394531 25.898438 C 2.171875 26.230469 1.984375 26.582031 1.832031 26.953125 C 1.675781 27.320312 1.5625 27.703125 1.484375 28.097656 C 1.40625 28.488281 1.367188 28.882812 1.367188 29.285156 C 1.367188 29.683594 1.40625 30.082031 1.484375 30.472656 C 1.5625 30.867188 1.675781 31.246094 1.832031 31.617188 C 1.984375 31.988281 2.171875 32.339844 2.394531 32.671875 C 2.617188 33.003906 2.871094 33.3125 3.152344 33.59375 C 3.4375 33.878906 3.746094 34.128906 4.078125 34.351562 C 4.410156 34.574219 4.761719 34.761719 5.132812 34.917969 C 5.503906 35.070312 5.882812 35.183594 6.277344 35.261719 C 6.667969 35.339844 7.066406 35.378906 7.464844 35.378906 C 7.867188 35.378906 8.265625 35.339844 8.65625 35.261719 C 9.050781 35.183594 9.429688 35.070312 9.800781 34.917969 C 10.171875 34.761719 10.523438 34.574219 10.855469 34.351562 C 11.1875 34.128906 11.496094 33.878906 11.78125 33.59375 C 12.628906 32.75 13.496094 31.925781 14.382812 31.125 C 15.269531 30.320312 16.175781 29.539062 17.101562 28.78125 C 18.027344 28.023438 18.96875 27.289062 19.933594 26.578125 C 20.894531 25.867188 21.871094 25.175781 22.867188 24.515625 C 23.863281 23.851562 24.875 23.210938 25.902344 22.597656 C 26.929688 21.980469 27.96875 21.394531 29.023438 20.828125 C 30.082031 20.265625 31.148438 19.730469 32.230469 19.21875 C 33.3125 18.707031 34.410156 18.222656 35.515625 17.765625 C 36.621094 17.308594 37.738281 16.878906 38.863281 16.476562 C 39.992188 16.074219 41.125 15.699219 42.273438 15.351562 C 43.417969 15.003906 44.570312 14.6875 45.730469 14.394531 C 46.894531 14.105469 48.058594 13.84375 49.234375 13.609375 C 50.40625 13.378906 51.585938 13.175781 52.769531 13 C 53.953125 12.824219 55.140625 12.675781 56.332031 12.558594 C 57.523438 12.441406 58.71875 12.355469 59.914062 12.296875 C 61.109375 12.238281 62.304688 12.207031 63.5 12.207031 C 64.699219 12.207031 65.894531 12.238281 67.089844 12.296875 C 68.285156 12.355469 69.480469 12.441406 70.671875 12.558594 C 71.859375 12.675781 73.046875 12.824219 74.234375 13 C 75.417969 13.175781 76.59375 13.378906 77.769531 13.609375 C 78.945312 13.84375 80.109375 14.105469 81.273438 14.394531 C 82.433594 14.6875 83.585938 15.003906 84.730469 15.351562 C 85.878906 15.699219 87.011719 16.074219 88.140625 16.476562 C 89.265625 16.878906 90.382812 17.308594 91.488281 17.765625 C 92.59375 18.222656 93.691406 18.707031 94.773438 19.21875 C 95.855469 19.730469 96.921875 20.265625 97.980469 20.828125 C 99.035156 21.394531 100.074219 21.980469 101.101562 22.597656 C 102.128906 23.210938 103.140625 23.851562 104.136719 24.515625 C 105.132812 25.175781 106.109375 25.867188 107.070312 26.578125 C 108.035156 27.289062 108.976562 28.023438 109.902344 28.78125 C 110.828125 29.539062 111.734375 30.320312 112.621094 31.125 C 113.507812 31.925781 114.375 32.75 115.222656 33.59375 C 115.507812 33.878906 115.816406 34.128906 116.148438 34.351562 C 116.480469 34.574219 116.832031 34.761719 117.203125 34.917969 C 117.574219 35.070312 117.953125 35.183594 118.347656 35.261719 C 118.738281 35.339844 119.136719 35.378906 119.535156 35.378906 C 119.9375 35.378906 120.335938 35.339844 120.726562 35.261719 C 121.121094 35.183594 121.5 35.070312 121.871094 34.917969 C 122.242188 34.761719 122.59375 34.574219 122.925781 34.351562 C 123.257812 34.128906 123.566406 33.878906 123.851562 33.59375 C 124.132812 33.3125 124.386719 33.003906 124.609375 32.671875 C 124.832031 32.339844 125.019531 31.988281 125.171875 31.617188 C 125.328125 31.246094 125.441406 30.867188 125.519531 30.472656 C 125.597656 30.082031 125.636719 29.683594 125.636719 29.285156 C 125.636719 28.882812 125.597656 28.488281 125.519531 28.097656 C 125.441406 27.703125 125.328125 27.320312 125.171875 26.953125 C 125.019531 26.582031 124.832031 26.230469 124.609375 25.898438 C 124.386719 25.566406 124.132812 25.257812 123.851562 24.976562 C 121.878906 22.992188 119.8125 21.113281 117.65625 19.335938 C 115.5 17.5625 113.257812 15.894531 110.9375 14.339844 C 108.613281 12.785156 106.21875 11.347656 103.753906 10.027344 C 101.289062 8.710938 98.765625 7.515625 96.179688 6.445312 C 93.597656 5.375 90.96875 4.4375 88.289062 3.628906 C 85.613281 2.820312 82.90625 2.144531 80.160156 1.601562 C 77.417969 1.0625 74.65625 0.65625 71.871094 0.390625 C 69.089844 0.121094 66.296875 -0.0078125 63.5 0 Z M 63.5 0 " fill-opacity="1" fill-rule="nonzero"/><path fill="#000000" d="M 63.5 24.375 C 59.503906 24.359375 55.539062 24.734375 51.613281 25.5 C 47.691406 26.265625 43.878906 27.410156 40.179688 28.933594 C 36.480469 30.453125 32.96875 32.324219 29.640625 34.539062 C 26.3125 36.757812 23.234375 39.277344 20.40625 42.105469 C 20.144531 42.390625 19.914062 42.699219 19.710938 43.03125 C 19.507812 43.363281 19.335938 43.710938 19.199219 44.074219 C 19.0625 44.4375 18.960938 44.808594 18.894531 45.191406 C 18.832031 45.574219 18.800781 45.960938 18.8125 46.347656 C 18.820312 46.738281 18.863281 47.121094 18.945312 47.5 C 19.027344 47.882812 19.144531 48.25 19.296875 48.605469 C 19.449219 48.964844 19.636719 49.304688 19.851562 49.625 C 20.070312 49.949219 20.316406 50.246094 20.589844 50.519531 C 20.863281 50.796875 21.164062 51.042969 21.484375 51.261719 C 21.804688 51.480469 22.144531 51.664062 22.503906 51.816406 C 22.859375 51.972656 23.230469 52.089844 23.609375 52.171875 C 23.988281 52.253906 24.371094 52.300781 24.761719 52.308594 C 25.148438 52.320312 25.535156 52.292969 25.917969 52.226562 C 26.300781 52.164062 26.675781 52.0625 27.039062 51.925781 C 27.40625 51.792969 27.753906 51.621094 28.085938 51.421875 C 28.417969 51.21875 28.726562 50.988281 29.011719 50.726562 C 30.144531 49.597656 31.324219 48.527344 32.5625 47.515625 C 33.796875 46.503906 35.078125 45.554688 36.40625 44.667969 C 37.734375 43.78125 39.101562 42.960938 40.511719 42.210938 C 41.921875 41.457031 43.363281 40.777344 44.839844 40.167969 C 46.3125 39.558594 47.816406 39.019531 49.34375 38.558594 C 50.875 38.09375 52.421875 37.707031 53.988281 37.394531 C 55.554688 37.085938 57.132812 36.851562 58.722656 36.695312 C 60.3125 36.539062 61.90625 36.460938 63.5 36.460938 C 65.097656 36.460938 66.691406 36.539062 68.28125 36.695312 C 69.871094 36.851562 71.449219 37.085938 73.015625 37.394531 C 74.582031 37.707031 76.128906 38.09375 77.660156 38.558594 C 79.1875 39.019531 80.691406 39.558594 82.164062 40.167969 C 83.640625 40.777344 85.082031 41.457031 86.492188 42.210938 C 87.902344 42.960938 89.269531 43.78125 90.597656 44.667969 C 91.925781 45.554688 93.207031 46.503906 94.441406 47.515625 C 95.679688 48.527344 96.859375 49.597656 97.988281 50.726562 C 98.273438 51.007812 98.582031 51.257812 98.914062 51.480469 C 99.246094 51.699219 99.597656 51.886719 99.964844 52.039062 C 100.335938 52.191406 100.714844 52.304688 101.105469 52.382812 C 101.5 52.460938 101.894531 52.5 102.292969 52.5 C 102.691406 52.5 103.085938 52.460938 103.480469 52.382812 C 103.871094 52.304688 104.25 52.191406 104.621094 52.039062 C 104.988281 51.886719 105.339844 51.699219 105.671875 51.480469 C 106.003906 51.257812 106.3125 51.007812 106.59375 50.726562 C 106.878906 50.441406 107.132812 50.136719 107.359375 49.804688 C 107.582031 49.46875 107.769531 49.121094 107.925781 48.75 C 108.078125 48.378906 108.195312 48 108.273438 47.605469 C 108.351562 47.210938 108.390625 46.816406 108.390625 46.414062 C 108.390625 46.015625 108.351562 45.617188 108.273438 45.222656 C 108.195312 44.832031 108.078125 44.449219 107.925781 44.082031 C 107.769531 43.710938 107.582031 43.359375 107.359375 43.027344 C 107.132812 42.695312 106.878906 42.386719 106.59375 42.105469 C 103.769531 39.277344 100.691406 36.757812 97.363281 34.539062 C 94.035156 32.324219 90.523438 30.453125 86.824219 28.933594 C 83.125 27.410156 79.3125 26.265625 75.390625 25.5 C 71.464844 24.734375 67.5 24.359375 63.5 24.375 Z M 63.5 24.375 " fill-opacity="1" fill-rule="nonzero"/><path fill="#000000" d="M 37.640625 59.433594 C 37.335938 59.710938 37.0625 60.019531 36.820312 60.351562 C 36.578125 60.683594 36.375 61.039062 36.203125 61.414062 C 36.03125 61.789062 35.902344 62.175781 35.808594 62.578125 C 35.71875 62.980469 35.667969 63.386719 35.660156 63.800781 C 35.652344 64.210938 35.683594 64.621094 35.757812 65.023438 C 35.832031 65.429688 35.945312 65.824219 36.097656 66.207031 C 36.253906 66.585938 36.445312 66.949219 36.671875 67.292969 C 36.898438 67.636719 37.160156 67.953125 37.449219 68.246094 C 37.742188 68.535156 38.058594 68.796875 38.40625 69.023438 C 38.75 69.246094 39.113281 69.4375 39.496094 69.589844 C 39.878906 69.742188 40.273438 69.855469 40.679688 69.929688 C 41.085938 70 41.492188 70.035156 41.90625 70.023438 C 42.316406 70.011719 42.722656 69.960938 43.125 69.871094 C 43.527344 69.777344 43.917969 69.644531 44.292969 69.472656 C 44.667969 69.304688 45.019531 69.097656 45.351562 68.855469 C 45.6875 68.609375 45.992188 68.335938 46.269531 68.03125 C 46.832031 67.46875 47.425781 66.933594 48.042969 66.429688 C 48.660156 65.925781 49.300781 65.449219 49.964844 65.007812 C 50.628906 64.566406 51.3125 64.15625 52.015625 63.78125 C 52.71875 63.40625 53.441406 63.066406 54.175781 62.761719 C 54.914062 62.457031 55.664062 62.1875 56.429688 61.957031 C 57.191406 61.726562 57.964844 61.535156 58.75 61.378906 C 59.53125 61.222656 60.320312 61.105469 61.113281 61.027344 C 61.90625 60.949219 62.703125 60.910156 63.5 60.910156 C 64.300781 60.910156 65.097656 60.949219 65.890625 61.027344 C 66.683594 61.105469 67.472656 61.222656 68.253906 61.378906 C 69.039062 61.535156 69.8125 61.726562 70.574219 61.957031 C 71.339844 62.1875 72.089844 62.457031 72.828125 62.761719 C 73.5625 63.066406 74.285156 63.40625 74.988281 63.78125 C 75.691406 64.15625 76.375 64.566406 77.039062 65.007812 C 77.703125 65.449219 78.34375 65.925781 78.960938 66.429688 C 79.578125 66.933594 80.171875 67.46875 80.734375 68.03125 C 81.011719 68.335938 81.316406 68.609375 81.652344 68.855469 C 81.984375 69.097656 82.335938 69.304688 82.710938 69.472656 C 83.085938 69.644531 83.476562 69.777344 83.878906 69.871094 C 84.28125 69.960938 84.6875 70.011719 85.097656 70.023438 C 85.511719 70.035156 85.917969 70 86.324219 69.929688 C 86.730469 69.855469 87.125 69.742188 87.507812 69.589844 C 87.890625 69.4375 88.253906 69.25 88.597656 69.023438 C 88.941406 68.796875 89.261719 68.535156 89.554688 68.246094 C 89.84375 67.953125 90.105469 67.636719 90.332031 67.292969 C 90.558594 66.949219 90.75 66.585938 90.90625 66.207031 C 91.058594 65.824219 91.171875 65.429688 91.246094 65.023438 C 91.320312 64.621094 91.351562 64.210938 91.34375 63.800781 C 91.335938 63.386719 91.285156 62.980469 91.191406 62.578125 C 91.101562 62.175781 90.972656 61.789062 90.800781 61.414062 C 90.628906 61.039062 90.425781 60.683594 90.183594 60.351562 C 89.941406 60.019531 89.667969 59.710938 89.363281 59.433594 C 88.515625 58.589844 87.628906 57.789062 86.703125 57.03125 C 85.773438 56.273438 84.8125 55.5625 83.816406 54.898438 C 82.820312 54.234375 81.792969 53.621094 80.738281 53.058594 C 79.683594 52.492188 78.601562 51.984375 77.492188 51.527344 C 76.386719 51.070312 75.261719 50.667969 74.117188 50.320312 C 72.96875 49.972656 71.808594 49.683594 70.632812 49.449219 C 69.460938 49.21875 68.277344 49.042969 67.085938 48.925781 C 65.894531 48.808594 64.699219 48.75 63.5 48.75 C 62.304688 48.75 61.109375 48.808594 59.917969 48.925781 C 58.726562 49.042969 57.542969 49.21875 56.371094 49.449219 C 55.195312 49.683594 54.035156 49.972656 52.886719 50.320312 C 51.742188 50.667969 50.617188 51.070312 49.507812 51.527344 C 48.402344 51.984375 47.320312 52.492188 46.265625 53.058594 C 45.207031 53.621094 44.183594 54.234375 43.1875 54.898438 C 42.191406 55.5625 41.230469 56.273438 40.300781 57.03125 C 39.375 57.789062 38.488281 58.589844 37.640625 59.433594 Z M 37.640625 59.433594 " fill-opacity="1" fill-rule="nonzero"/><g clip-path="url(#001f8fae14)"><path fill="#000000" d="M 75.746094 85.273438 C 75.746094 86.078125 75.667969 86.871094 75.507812 87.660156 C 75.351562 88.449219 75.121094 89.210938 74.8125 89.953125 C 74.503906 90.695312 74.128906 91.402344 73.679688 92.070312 C 73.234375 92.738281 72.726562 93.355469 72.160156 93.921875 C 71.589844 94.492188 70.972656 94.996094 70.304688 95.445312 C 69.636719 95.890625 68.929688 96.265625 68.1875 96.574219 C 67.445312 96.882812 66.679688 97.113281 65.890625 97.269531 C 65.101562 97.425781 64.304688 97.503906 63.5 97.503906 C 62.699219 97.503906 61.902344 97.425781 61.113281 97.269531 C 60.324219 97.113281 59.558594 96.882812 58.816406 96.574219 C 58.074219 96.265625 57.367188 95.890625 56.699219 95.445312 C 56.03125 94.996094 55.414062 94.492188 54.84375 93.921875 C 54.277344 93.355469 53.769531 92.738281 53.324219 92.070312 C 52.875 91.402344 52.5 90.695312 52.191406 89.953125 C 51.882812 89.210938 51.652344 88.449219 51.496094 87.660156 C 51.335938 86.871094 51.257812 86.078125 51.257812 85.273438 C 51.257812 84.46875 51.335938 83.675781 51.496094 82.886719 C 51.652344 82.097656 51.882812 81.335938 52.191406 80.59375 C 52.5 79.851562 52.875 79.144531 53.324219 78.476562 C 53.769531 77.808594 54.277344 77.191406 54.84375 76.625 C 55.414062 76.054688 56.03125 75.546875 56.699219 75.101562 C 57.367188 74.65625 58.074219 74.277344 58.816406 73.972656 C 59.558594 73.664062 60.324219 73.433594 61.113281 73.277344 C 61.902344 73.117188 62.699219 73.039062 63.5 73.039062 C 64.304688 73.039062 65.101562 73.117188 65.890625 73.277344 C 66.679688 73.433594 67.445312 73.664062 68.1875 73.972656 C 68.929688 74.277344 69.636719 74.65625 70.304688 75.101562 C 70.972656 75.546875 71.589844 76.054688 72.160156 76.625 C 72.726562 77.191406 73.234375 77.808594 73.679688 78.476562 C 74.128906 79.144531 74.503906 79.851562 74.8125 80.59375 C 75.121094 81.335938 75.351562 82.097656 75.507812 82.886719 C 75.667969 83.675781 75.746094 84.46875 75.746094 85.273438 Z M 75.746094 85.273438 " fill-opacity="1" fill-rule="nonzero"/></g><g clip-path="url(#341897648d)"><g transform="matrix(1, 0, 0, 1, 56, 78)"><g clip-path="url(#84c13630b5)"><g clip-path="url(#3ee61b8ce3)"><path fill="#000000" d="M 0.464844 0.34375 L 14.394531 0.34375 L 14.394531 14.273438 L 0.464844 14.273438 Z M 0.464844 0.34375 " fill-opacity="1" fill-rule="nonzero"/></g></g></g></g></svg>